<?xml version="1.0" encoding="utf-8"?><!-- Uploaded to: SVG Repo, www.svgrepo.com, Generator: SVG Repo Mixer Tools -->
<svg width="800px" height="800px" viewBox="0 0 24 24" fill="none" xmlns="http://www.w3.org/2000/svg">
<!-- <path d="M9.71069 18.2929C10.1012 18.6834 10.7344 18.6834 11.1249 18.2929L16.0123 13.4006C16.7927 12.6195 16.7924 11.3537 16.0117 10.5729L11.1213 5.68254C10.7308 5.29202 10.0976 5.29202 9.70708 5.68254C9.31655 6.07307 9.31655 6.70623 9.70708 7.09676L13.8927 11.2824C14.2833 11.6729 14.2833 12.3061 13.8927 12.6966L9.71069 16.8787C9.32016 17.2692 9.32016 17.9023 9.71069 18.2929Z" fill="#0F0F0F"/> -->
<path d="M7.82054 20.7313C8.21107 21.1218 8.84423 21.1218 9.23476 20.7313L15.8792 14.0868C17.0505 12.9155 17.0508 11.0167 15.88 9.84497L9.3097 3.26958C8.91918 2.87905 8.28601 2.87905 7.89549 3.26958C7.50497 3.6601 7.50497 4.29327 7.89549 4.68379L14.4675 11.2558C14.8581 11.6464 14.8581 12.2795 14.4675 12.67L7.82054 19.317C7.43002 19.7076 7.43002 20.3407 7.82054 20.7313Z" fill="#0F0F0F"/>
</svg>