<!-- <svg width="48" height="48" version="1.1" xmlns="http://www.w3.org/2000/svg"><path d="M24 48c13.255 0 24-10.745 24-24S37.255 0 24 0 0 10.745 0 24s10.745 24 24 24" fill="#D6001C"/><path d="M13.65 13.169v8.164c1.243-1.482 2.733-2.228 4.461-2.228.89 0 1.687.17 2.402.507.717.335 1.253.765 1.615 1.287.364.527.61 1.104.743 1.74.132.633.198 1.618.198 2.954v8.729h-3.862V26.46c0-1.56-.07-2.548-.217-2.968a1.917 1.917 0 00-.775-1c-.372-.251-.835-.375-1.394-.375-.64 0-1.214.16-1.713.478-.51.32-.876.798-1.108 1.437-.236.64-.354 1.585-.35 2.836l-.004 7.454H9.789V13.169h3.862m15.206 0v8.164c1.244-1.482 2.733-2.228 4.46-2.228.887 0 1.69.17 2.406.507.714.335 1.25.765 1.61 1.287a4.69 4.69 0 01.743 1.74c.133.633.199 1.618.199 2.954v8.729h-3.858V26.46c0-1.56-.073-2.548-.22-2.968a1.91 1.91 0 00-.777-1c-.368-.251-.835-.375-1.394-.375-.639 0-1.213.16-1.713.478-.503.32-.871.798-1.106 1.437-.232.64-.35 1.585-.35 2.836v7.454H25V13.169h3.857" fill="#FEFEFE"/></svg> -->

<svg width="51" height="51" viewBox="0 0 51 51" fill="none" xmlns="http://www.w3.org/2000/svg">
<g clip-path="url(#clip0_1_3689)">
<path d="M25.6094 50.4844C39.4167 50.4844 50.6094 39.2917 50.6094 25.4844C50.6094 11.6771 39.4167 0.484375 25.6094 0.484375C11.8021 0.484375 0.609375 11.6771 0.609375 25.4844C0.609375 39.2917 11.8021 50.4844 25.6094 50.4844Z" fill="#D6001C"/>
<path d="M14.8285 14.2012V22.7053C16.1233 21.1616 17.6754 20.3845 19.4754 20.3845C20.4025 20.3845 21.2327 20.5616 21.9775 20.9126C22.7243 21.2616 23.2827 21.7095 23.6598 22.2533C24.0389 22.8022 24.2952 23.4033 24.4337 24.0658C24.5712 24.7251 24.64 25.7512 24.64 27.1428V36.2355H20.6171V28.046C20.6171 26.421 20.5441 25.3918 20.391 24.9543C20.2476 24.5257 19.9629 24.1585 19.5837 23.9126C19.1962 23.6512 18.7139 23.522 18.1316 23.522C17.465 23.522 16.8671 23.6887 16.3473 24.0199C15.816 24.3533 15.4348 24.8512 15.1931 25.5168C14.9473 26.1835 14.8243 27.1678 14.8285 28.471L14.8243 36.2355H10.8066V14.2012H14.8296M30.6691 14.2012V22.7053C31.965 21.1616 33.516 20.3845 35.315 20.3845C36.2389 20.3845 37.0754 20.5616 37.8212 20.9126C38.565 21.2616 39.1233 21.7095 39.4983 22.2533C39.8767 22.7986 40.1401 23.4153 40.2723 24.0658C40.4108 24.7251 40.4796 25.7512 40.4796 27.1428V36.2355H36.4608V28.046C36.4608 26.421 36.3848 25.3918 36.2316 24.9543C36.0882 24.5251 35.8027 24.1577 35.4223 23.9126C35.0389 23.6512 34.5525 23.522 33.9702 23.522C33.3046 23.522 32.7066 23.6887 32.1858 24.0199C31.6618 24.3533 31.2785 24.8512 31.0337 25.5168C30.7921 26.1835 30.6691 27.1678 30.6691 28.471V36.2355H26.6514V14.2012H30.6691Z" fill="#FEFEFE"/>
</g>
<defs>
<clipPath id="clip0_1_3689">
<rect width="50" height="50" fill="white" transform="translate(0.609375 0.484375)"/>
</clipPath>
</defs>
</svg>
